<?xml version="1.0" standalone="no"?>
<!DOCTYPE svg PUBLIC "-//W3C//DTD SVG 20010904//EN"
 "http://www.w3.org/TR/2001/REC-SVG-20010904/DTD/svg10.dtd">
<svg version="1.0" xmlns="http://www.w3.org/2000/svg"
 width="800.000000pt" height="800.000000pt" viewBox="0 0 800.000000 800.000000"
 preserveAspectRatio="xMidYMid meet">

<g transform="translate(0.000000,800.000000) scale(0.100000,-0.100000)"
fill="#000000" stroke="none">
<path d="M2371 5634 c7 -8 6 -15 -2 -20 -8 -5 -10 -3 -4 7 4 8 -9 -3 -29 -25
-20 -21 -36 -43 -36 -49 0 -8 -25 -64 -61 -138 -4 -9 -11 -34 -15 -55 -3 -22
-12 -48 -18 -59 -14 -25 -58 -209 -71 -293 -3 -21 -9 -107 -13 -192 -6 -136
-10 -160 -31 -196 -20 -36 -100 -110 -151 -138 -10 -6 -38 -22 -62 -36 -40
-23 -148 -74 -223 -106 -16 -6 -86 -24 -154 -39 -114 -25 -136 -26 -275 -21
-83 3 -165 10 -183 15 -33 10 -43 1 -43 -37 0 -33 45 -107 103 -168 l61 -64
60 0 c74 0 434 32 612 54 34 5 54 -8 54 -34 0 -18 -42 -107 -181 -384 -136
-270 -249 -494 -265 -526 -24 -50 -37 -136 -30 -203 7 -58 12 -71 48 -111 22
-25 48 -46 59 -46 10 0 19 -7 19 -15 0 -9 10 -15 23 -16 12 0 41 -3 65 -5 26
-3 49 0 58 7 7 6 20 9 27 6 13 -5 43 9 160 70 15 8 27 19 27 24 0 5 7 9 15 9
8 0 23 9 32 20 10 11 23 20 30 20 7 0 13 4 13 8 0 8 13 27 57 82 66 82 121
222 106 269 -4 13 -3 14 5 2 13 -18 26 31 42 154 9 79 8 105 -10 210 -11 66
-22 134 -24 150 -6 45 35 195 83 307 20 46 20 46 78 52 32 4 85 10 118 15 33
5 108 9 166 10 58 1 134 6 170 11 35 5 137 10 225 10 135 0 163 3 168 15 3 8
14 15 25 15 11 0 33 11 48 25 22 19 25 27 14 34 -8 5 -9 10 -2 12 7 3 7 12 -2
29 -16 31 -105 77 -176 90 -66 12 -332 13 -384 1 -22 -5 -100 -11 -175 -12
l-137 -3 1 50 c1 31 25 118 64 234 34 102 68 208 75 235 7 28 25 91 40 140 14
50 42 153 61 230 43 170 42 206 -10 251 -20 17 -36 36 -36 43 0 6 -6 11 -13
11 -7 0 -18 9 -25 20 -7 11 -19 20 -28 20 -8 0 -25 9 -37 20 -16 16 -33 20
-69 19 -36 -2 -45 -5 -37 -15z m0 -286 c9 -16 9 -23 0 -26 -6 -2 -11 -13 -11
-25 0 -12 -14 -60 -31 -107 -17 -47 -35 -99 -40 -117 -11 -36 -32 -48 -50 -27
-10 13 -10 25 1 62 7 26 15 60 18 77 3 16 13 43 23 60 11 16 19 40 19 52 0 21
36 69 52 72 4 1 13 -9 19 -21z m-245 -1844 c-4 -19 -11 -34 -15 -34 -5 0 -11
-21 -14 -47 -10 -88 -68 -294 -87 -313 -3 -3 -15 -23 -26 -44 -33 -59 -95
-142 -117 -156 -16 -9 -22 -9 -33 2 -12 12 -12 21 2 63 9 28 21 56 27 63 10
13 28 59 102 268 23 66 47 129 52 140 6 10 21 40 34 66 18 37 28 47 41 42 11
-3 18 0 18 8 0 8 5 6 11 -5 6 -10 8 -34 5 -53z"/>
</g>
</svg>
